<svg width="138" height="151" viewBox="0 0 138 151" fill="none" xmlns="http://www.w3.org/2000/svg">
<path d="M22.624 0.535999H25.28V29.528H22.624V0.535999ZM10.016 2.776C11.4453 2.776 12.704 3.192 13.792 4.024C14.9013 4.83467 15.7653 5.99733 16.384 7.512C17.024 9.02667 17.344 10.808 17.344 12.856C17.344 14.904 17.024 16.6853 16.384 18.2C15.7653 19.7147 14.9013 20.888 13.792 21.72C12.704 22.552 11.4453 22.968 10.016 22.968C8.58667 22.968 7.31733 22.552 6.208 21.72C5.09867 20.888 4.224 19.7147 3.584 18.2C2.96533 16.6853 2.656 14.904 2.656 12.856C2.656 10.808 2.96533 9.02667 3.584 7.512C4.224 5.99733 5.09867 4.83467 6.208 4.024C7.31733 3.192 8.58667 2.776 10.016 2.776ZM10.016 5.144C9.056 5.144 8.21333 5.464 7.488 6.104C6.784 6.72267 6.22933 7.61867 5.824 8.792C5.41867 9.944 5.216 11.2987 5.216 12.856C5.216 14.4133 5.41867 15.7787 5.824 16.952C6.22933 18.104 6.784 19 7.488 19.64C8.21333 20.28 9.056 20.6 10.016 20.6C10.9547 20.6 11.776 20.28 12.48 19.64C13.2053 19 13.7707 18.104 14.176 16.952C14.5813 15.7787 14.784 14.4133 14.784 12.856C14.784 11.2987 14.5813 9.944 14.176 8.792C13.7707 7.61867 13.2053 6.72267 12.48 6.104C11.776 5.464 10.9547 5.144 10.016 5.144ZM31.0055 15.48H57.2455V17.624H31.0055V15.48ZM34.3335 1.24H53.8855V8.12H37.0215V11.928H34.3975V6.136H51.2615V3.352H34.3335V1.24ZM34.3975 10.936H54.4935V13.016H34.3975V10.936ZM34.5575 20.248H53.9175V29.112H34.5575V20.248ZM51.2935 22.392H37.1495V26.936H51.2935V22.392ZM61.1094 13.4062V11H63.5156V13.4062H61.1094ZM61.1094 27V24.5938H63.5156V27H61.1094ZM83.8125 27V15.2812C83.8125 14.8958 83.7396 14.5365 83.5938 14.2031C83.4479 13.8594 83.25 13.5625 83 13.3125C82.75 13.0625 82.4531 12.8646 82.1094 12.7188C81.776 12.5729 81.4167 12.5 81.0312 12.5H79.75C79.3646 12.5 79 12.5729 78.6562 12.7188C78.3229 12.8646 78.0312 13.0625 77.7812 13.3125C77.5312 13.5625 77.3333 13.8594 77.1875 14.2031C77.0417 14.5365 76.9688 14.8958 76.9688 15.2812V27H75.0469V4.59375H76.9688V12.3438C77.4062 11.8229 77.9323 11.4167 78.5469 11.125C79.1615 10.8333 79.8281 10.6875 80.5469 10.6875H81.0312C81.6771 10.6875 82.2865 10.8125 82.8594 11.0625C83.4323 11.3021 83.9323 11.6354 84.3594 12.0625C84.7865 12.4896 85.1198 12.9896 85.3594 13.5625C85.6094 14.1354 85.7344 14.7448 85.7344 15.3906V27H83.8125ZM100.266 22.6094C100.266 23.2552 100.141 23.8646 99.8906 24.4375C99.651 25.0104 99.3177 25.5104 98.8906 25.9375C98.4635 26.3646 97.9635 26.7031 97.3906 26.9531C96.8177 27.1927 96.2083 27.3125 95.5625 27.3125H94.2812C93.6354 27.3125 93.026 27.1927 92.4531 26.9531C91.8802 26.7031 91.3802 26.3646 90.9531 25.9375C90.526 25.5104 90.1875 25.0104 89.9375 24.4375C89.6979 23.8646 89.5781 23.2552 89.5781 22.6094V15.3906C89.5781 14.7448 89.6979 14.1354 89.9375 13.5625C90.1875 12.9896 90.526 12.4896 90.9531 12.0625C91.3802 11.6354 91.8802 11.3021 92.4531 11.0625C93.026 10.8125 93.6354 10.6875 94.2812 10.6875H95.5625C96.2083 10.6875 96.8177 10.8125 97.3906 11.0625C97.9635 11.3021 98.4635 11.6354 98.8906 12.0625C99.3177 12.4896 99.651 12.9896 99.8906 13.5625C100.141 14.1354 100.266 14.7448 100.266 15.3906V22.6094ZM98.3438 15.2812C98.3438 14.8958 98.2708 14.5365 98.125 14.2031C97.9792 13.8594 97.7812 13.5625 97.5312 13.3125C97.2812 13.0625 96.9844 12.8646 96.6406 12.7188C96.3073 12.5729 95.9479 12.5 95.5625 12.5H94.2812C93.8958 12.5 93.5312 12.5729 93.1875 12.7188C92.8542 12.8646 92.5625 13.0625 92.3125 13.3125C92.0625 13.5625 91.8646 13.8594 91.7188 14.2031C91.5729 14.5365 91.5 14.8958 91.5 15.2812V22.7188C91.5 23.1042 91.5729 23.4688 91.7188 23.8125C91.8646 24.1458 92.0625 24.4375 92.3125 24.6875C92.5625 24.9375 92.8542 25.1354 93.1875 25.2812C93.5312 25.4271 93.8958 25.5 94.2812 25.5H95.5625C95.9479 25.5 96.3073 25.4271 96.6406 25.2812C96.9844 25.1354 97.2812 24.9375 97.5312 24.6875C97.7812 24.4375 97.9792 24.1458 98.125 23.8125C98.2708 23.4688 98.3438 23.1042 98.3438 22.7188V15.2812ZM121 27V15.2812C121 14.8958 120.927 14.5365 120.781 14.2031C120.635 13.8594 120.438 13.5625 120.188 13.3125C119.938 13.0625 119.641 12.8646 119.297 12.7188C118.964 12.5729 118.604 12.5 118.219 12.5H117.266C116.88 12.5 116.516 12.5729 116.172 12.7188C115.839 12.8646 115.542 13.0625 115.281 13.3125C115.031 13.5625 114.833 13.8594 114.688 14.2031C114.542 14.5365 114.469 14.8958 114.469 15.2812V27H112.562V15.2812C112.562 14.8958 112.49 14.5365 112.344 14.2031C112.198 13.8594 111.995 13.5625 111.734 13.3125C111.484 13.0625 111.188 12.8646 110.844 12.7188C110.51 12.5729 110.151 12.5 109.766 12.5H108.812C108.427 12.5 108.062 12.5729 107.719 12.7188C107.385 12.8646 107.094 13.0625 106.844 13.3125C106.594 13.5625 106.396 13.8594 106.25 14.2031C106.104 14.5365 106.031 14.8958 106.031 15.2812V27H104.109V11H104.75L105.797 12.625C106.234 12.0312 106.781 11.5625 107.438 11.2188C108.104 10.8646 108.828 10.6875 109.609 10.6875H109.766C110.672 10.6875 111.49 10.9115 112.219 11.3594C112.948 11.8073 113.51 12.401 113.906 13.1406C114.104 12.776 114.349 12.4427 114.641 12.1406C114.932 11.8385 115.255 11.5833 115.609 11.375C115.964 11.1562 116.349 10.9896 116.766 10.875C117.182 10.75 117.615 10.6875 118.062 10.6875H118.219C118.865 10.6875 119.474 10.8125 120.047 11.0625C120.62 11.3021 121.12 11.6354 121.547 12.0625C121.974 12.4896 122.307 12.9896 122.547 13.5625C122.797 14.1354 122.922 14.7448 122.922 15.3906V27H121ZM137.453 22.6094C137.453 23.2552 137.328 23.8646 137.078 24.4375C136.839 25.0104 136.505 25.5104 136.078 25.9375C135.651 26.3646 135.151 26.7031 134.578 26.9531C134.005 27.1927 133.396 27.3125 132.75 27.3125H131.469C130.823 27.3125 130.214 27.1927 129.641 26.9531C129.068 26.7031 128.568 26.3646 128.141 25.9375C127.714 25.5104 127.375 25.0104 127.125 24.4375C126.885 23.8646 126.766 23.2552 126.766 22.6094V15.3906C126.766 14.7448 126.885 14.1354 127.125 13.5625C127.375 12.9896 127.714 12.4896 128.141 12.0625C128.568 11.6354 129.068 11.3021 129.641 11.0625C130.214 10.8125 130.823 10.6875 131.469 10.6875H132.75C133.396 10.6875 134.005 10.8125 134.578 11.0625C135.151 11.3021 135.651 11.6354 136.078 12.0625C136.505 12.4896 136.839 12.9896 137.078 13.5625C137.328 14.1354 137.453 14.7448 137.453 15.3906V19.1562H128.688V22.7188C128.688 23.1042 128.76 23.4688 128.906 23.8125C129.052 24.1458 129.25 24.4375 129.5 24.6875C129.75 24.9375 130.042 25.1354 130.375 25.2812C130.719 25.4271 131.083 25.5 131.469 25.5H132.75C133.135 25.5 133.495 25.4271 133.828 25.2812C134.172 25.1354 134.469 24.9375 134.719 24.6875C134.969 24.4375 135.167 24.1458 135.312 23.8125C135.458 23.4688 135.531 23.1042 135.531 22.7188V21.6562L137.453 21.9688V22.6094ZM135.531 15.2812C135.531 14.8958 135.458 14.5365 135.312 14.2031C135.167 13.8594 134.969 13.5625 134.719 13.3125C134.469 13.0625 134.172 12.8646 133.828 12.7188C133.495 12.5729 133.135 12.5 132.75 12.5H131.469C131.083 12.5 130.719 12.5729 130.375 12.7188C130.042 12.8646 129.75 13.0625 129.5 13.3125C129.25 13.5625 129.052 13.8594 128.906 14.2031C128.76 14.5365 128.688 14.8958 128.688 15.2812V17.6562H135.531V15.2812ZM4.928 42.688H23.552V44.832H4.928V42.688ZM1.568 52.128H27.808V54.304H1.568V52.128ZM13.344 52.96H15.968V58.528H13.344V52.96ZM21.824 42.688H24.448V44.544C24.448 45.568 24.416 46.7627 24.352 48.128C24.288 49.4933 24.064 51.0507 23.68 52.8L21.056 52.544C21.44 50.7733 21.664 49.248 21.728 47.968C21.792 46.688 21.824 45.5467 21.824 44.544V42.688ZM4.48 68.128H6.24C7.43467 68.128 8.49067 68.1173 9.408 68.096C10.3467 68.0747 11.1893 68.0427 11.936 68C12.704 67.9573 13.4187 67.8827 14.08 67.776C14.7627 67.6693 15.456 67.5413 16.16 67.392L16.416 69.44C15.712 69.5893 15.008 69.7173 14.304 69.824C13.6 69.9307 12.8533 70.0053 12.064 70.048C11.296 70.0907 10.4427 70.1227 9.504 70.144C8.56533 70.1653 7.47733 70.176 6.24 70.176H4.48V68.128ZM4.416 58.624H13.984V65.216H7.04V69.44H4.48V63.232H11.424V60.672H4.416V58.624ZM15.552 58.624H24.736V70.336H22.112V60.768H15.552V58.624ZM52.1255 41.536H54.7815V70.496H52.1255V41.536ZM43.6455 44.672H46.2695C46.2695 46.7627 46.0135 48.7787 45.5015 50.72C45.0108 52.6613 44.2322 54.5067 43.1655 56.256C42.0988 57.984 40.7122 59.5947 39.0055 61.088C37.2988 62.5813 35.2295 63.9147 32.7975 65.088L31.3895 62.944C34.1842 61.6 36.4882 60.032 38.3015 58.24C40.1148 56.448 41.4588 54.4533 42.3335 52.256C43.2082 50.0373 43.6455 47.648 43.6455 45.088V44.672ZM32.7335 44.672H44.7655V46.816H32.7335V44.672ZM61.1094 54.4062V52H63.5156V54.4062H61.1094ZM61.1094 68V65.5938H63.5156V68H61.1094ZM80.4844 47.2031C79.9844 47.2031 79.5156 47.2969 79.0781 47.4844C78.651 47.6719 78.276 47.9271 77.9531 48.25C77.6302 48.5729 77.375 48.9531 77.1875 49.3906C77 49.8177 76.9062 50.2812 76.9062 50.7812V51.6875L74.8906 51.3594V50.7812C74.8906 50.0208 75.0312 49.3073 75.3125 48.6406C75.6042 47.974 76 47.3906 76.5 46.8906C77 46.3906 77.5833 46 78.25 45.7188C78.9167 45.4271 79.6302 45.2812 80.3906 45.2812H81.3438C82.1042 45.2812 82.8177 45.4167 83.4844 45.6875C84.1615 45.9583 84.75 46.349 85.25 46.8594C85.75 47.3698 86.1406 47.9844 86.4219 48.7031C86.7135 49.4115 86.8594 50.2135 86.8594 51.1094C86.8594 51.9948 86.724 52.8854 86.4531 53.7812C86.1927 54.6771 85.8438 55.5573 85.4062 56.4219C84.9792 57.2865 84.4844 58.125 83.9219 58.9375C83.3698 59.75 82.8021 60.5156 82.2188 61.2344C80.8542 62.9115 79.3073 64.526 77.5781 66.0781H87.0156V68H74.4062V66.4062C76.3542 64.8021 78.0938 63.1406 79.625 61.4219C80.2812 60.6823 80.9219 59.8958 81.5469 59.0625C82.1719 58.2292 82.7292 57.375 83.2188 56.5C83.7083 55.6146 84.099 54.7188 84.3906 53.8125C84.6927 52.8958 84.8438 51.9948 84.8438 51.1094C84.8438 50.4531 84.7448 49.8802 84.5469 49.3906C84.349 48.901 84.0833 48.4948 83.75 48.1719C83.4167 47.849 83.0312 47.6094 82.5938 47.4531C82.1667 47.2865 81.7188 47.2031 81.25 47.2031H80.4844ZM103.141 62.8125C103.141 63.5729 102.995 64.2865 102.703 64.9531C102.422 65.6198 102.031 66.2031 101.531 66.7031C101.031 67.2031 100.448 67.599 99.7812 67.8906C99.1146 68.1719 98.401 68.3125 97.6406 68.3125H96.6875C95.9271 68.3125 95.2083 68.1719 94.5312 67.8906C93.8646 67.599 93.2812 67.2031 92.7812 66.7031C92.2812 66.2031 91.8854 65.6198 91.5938 64.9531C91.3125 64.2865 91.1719 63.5729 91.1719 62.8125V50.7812C91.1719 50.0208 91.3125 49.3073 91.5938 48.6406C91.8854 47.974 92.2812 47.3906 92.7812 46.8906C93.2812 46.3906 93.8646 46 94.5312 45.7188C95.2083 45.4271 95.9271 45.2812 96.6875 45.2812H97.6406C98.401 45.2812 99.1146 45.4271 99.7812 45.7188C100.448 46 101.031 46.3906 101.531 46.8906C102.031 47.3906 102.422 47.974 102.703 48.6406C102.995 49.3073 103.141 50.0208 103.141 50.7812V62.8125ZM101.125 50.7812C101.125 50.2812 101.031 49.8177 100.844 49.3906C100.656 48.9531 100.401 48.5729 100.078 48.25C99.7552 47.9271 99.375 47.6719 98.9375 47.4844C98.5104 47.2969 98.0469 47.2031 97.5469 47.2031H96.7812C96.2812 47.2031 95.8125 47.2969 95.375 47.4844C94.9479 47.6719 94.5677 47.9271 94.2344 48.25C93.9115 48.5729 93.6562 48.9531 93.4688 49.3906C93.2812 49.8177 93.1875 50.2812 93.1875 50.7812V62.8125C93.1875 63.3125 93.2812 63.7812 93.4688 64.2188C93.6562 64.6458 93.9115 65.026 94.2344 65.3594C94.5677 65.6823 94.9479 65.9375 95.375 66.125C95.8125 66.3125 96.2812 66.4062 96.7812 66.4062H97.5469C98.0469 66.4062 98.5104 66.3125 98.9375 66.125C99.375 65.9375 99.7552 65.6823 100.078 65.3594C100.401 65.026 100.656 64.6458 100.844 64.2188C101.031 63.7812 101.125 63.3125 101.125 62.8125V50.7812ZM119.609 62.8125C119.609 63.5729 119.464 64.2865 119.172 64.9531C118.891 65.6198 118.5 66.2031 118 66.7031C117.5 67.2031 116.917 67.599 116.25 67.8906C115.583 68.1719 114.87 68.3125 114.109 68.3125H113.156C112.396 68.3125 111.677 68.1719 111 67.8906C110.333 67.599 109.75 67.2031 109.25 66.7031C108.75 66.2031 108.354 65.6198 108.062 64.9531C107.781 64.2865 107.641 63.5729 107.641 62.8125V50.7812C107.641 50.0208 107.781 49.3073 108.062 48.6406C108.354 47.974 108.75 47.3906 109.25 46.8906C109.75 46.3906 110.333 46 111 45.7188C111.677 45.4271 112.396 45.2812 113.156 45.2812H114.109C114.87 45.2812 115.583 45.4271 116.25 45.7188C116.917 46 117.5 46.3906 118 46.8906C118.5 47.3906 118.891 47.974 119.172 48.6406C119.464 49.3073 119.609 50.0208 119.609 50.7812V62.8125ZM117.594 50.7812C117.594 50.2812 117.5 49.8177 117.312 49.3906C117.125 48.9531 116.87 48.5729 116.547 48.25C116.224 47.9271 115.844 47.6719 115.406 47.4844C114.979 47.2969 114.516 47.2031 114.016 47.2031H113.25C112.75 47.2031 112.281 47.2969 111.844 47.4844C111.417 47.6719 111.036 47.9271 110.703 48.25C110.38 48.5729 110.125 48.9531 109.938 49.3906C109.75 49.8177 109.656 50.2812 109.656 50.7812V62.8125C109.656 63.3125 109.75 63.7812 109.938 64.2188C110.125 64.6458 110.38 65.026 110.703 65.3594C111.036 65.6823 111.417 65.9375 111.844 66.125C112.281 66.3125 112.75 66.4062 113.25 66.4062H114.016C114.516 66.4062 114.979 66.3125 115.406 66.125C115.844 65.9375 116.224 65.6823 116.547 65.3594C116.87 65.026 117.125 64.6458 117.312 64.2188C117.5 63.7812 117.594 63.3125 117.594 62.8125V50.7812ZM4.736 85.48H23.072V87.656H4.736V85.48ZM1.6 105.256H27.744V107.464H1.6V105.256ZM21.952 85.48H24.544V89.032C24.544 90.44 24.5227 91.8587 24.48 93.288C24.4587 94.696 24.3627 96.2 24.192 97.8C24.0213 99.3787 23.7333 101.16 23.328 103.144L20.672 102.888C21.0987 101.032 21.3973 99.3253 21.568 97.768C21.76 96.1893 21.8667 94.6853 21.888 93.256C21.9307 91.8267 21.952 90.4187 21.952 89.032V85.48ZM22.592 93.48V95.496L4.32 96.456L3.936 94.28L22.592 93.48ZM52.1255 82.536H54.7815V111.496H52.1255V82.536ZM43.6455 85.672H46.2695C46.2695 87.7627 46.0135 89.7787 45.5015 91.72C45.0108 93.6613 44.2322 95.5067 43.1655 97.256C42.0988 98.984 40.7122 100.595 39.0055 102.088C37.2988 103.581 35.2295 104.915 32.7975 106.088L31.3895 103.944C34.1842 102.6 36.4882 101.032 38.3015 99.24C40.1148 97.448 41.4588 95.4533 42.3335 93.256C43.2082 91.0373 43.6455 88.648 43.6455 86.088V85.672ZM32.7335 85.672H44.7655V87.816H32.7335V85.672ZM61.1094 95.4062V93H63.5156V95.4062H61.1094ZM61.1094 109V106.594H63.5156V109H61.1094ZM75.6875 109V107.078H81.0312V88.5156L75.6875 90.7656V88.8438L81.0312 86.5938H83.0469V107.078H88.3906V109H75.6875ZM103.688 103.812C103.688 104.573 103.542 105.286 103.25 105.953C102.969 106.62 102.578 107.203 102.078 107.703C101.578 108.203 100.995 108.599 100.328 108.891C99.6615 109.172 98.9479 109.312 98.1875 109.312H97.2188C96.4583 109.312 95.7448 109.172 95.0781 108.891C94.4115 108.599 93.8281 108.203 93.3281 107.703C92.8281 107.203 92.4323 106.62 92.1406 105.953C91.8594 105.286 91.7188 104.573 91.7188 103.812V91.7812C91.7188 91.0208 91.8594 90.3073 92.1406 89.6406C92.4323 88.974 92.8281 88.3906 93.3281 87.8906C93.8281 87.3906 94.4115 87 95.0781 86.7188C95.7448 86.4271 96.4583 86.2812 97.2188 86.2812H98.1875C98.9479 86.2812 99.6615 86.4271 100.328 86.7188C100.995 87 101.578 87.3906 102.078 87.8906C102.578 88.3906 102.969 88.974 103.25 89.6406C103.542 90.3073 103.688 91.0208 103.688 91.7812V92.3594L101.672 92.6875V91.7812C101.672 91.2812 101.578 90.8177 101.391 90.3906C101.203 89.9531 100.943 89.5729 100.609 89.25C100.286 88.9271 99.9062 88.6719 99.4688 88.4844C99.0417 88.2969 98.5781 88.2031 98.0781 88.2031H97.3125C96.8125 88.2031 96.3438 88.2969 95.9062 88.4844C95.4792 88.6719 95.1042 88.9271 94.7812 89.25C94.4583 89.5729 94.2031 89.9531 94.0156 90.3906C93.8281 90.8177 93.7344 91.2812 93.7344 91.7812V97.3594C94.2448 96.7969 94.8542 96.349 95.5625 96.0156C96.2812 95.6719 97.0469 95.5 97.8594 95.5H98.1875C98.9479 95.5 99.6615 95.6458 100.328 95.9375C100.995 96.2188 101.578 96.6094 102.078 97.1094C102.578 97.6094 102.969 98.1927 103.25 98.8594C103.542 99.526 103.688 100.24 103.688 101V103.812ZM101.672 101C101.672 100.5 101.578 100.036 101.391 99.6094C101.203 99.1719 100.943 98.7917 100.609 98.4688C100.286 98.1458 99.9062 97.8906 99.4688 97.7031C99.0417 97.5156 98.5781 97.4219 98.0781 97.4219H97.3125C96.8125 97.4219 96.3438 97.5156 95.9062 97.7031C95.4792 97.8906 95.1042 98.1458 94.7812 98.4688C94.4583 98.7917 94.2031 99.1719 94.0156 99.6094C93.8281 100.036 93.7344 100.5 93.7344 101V103.812C93.7344 104.312 93.8281 104.781 94.0156 105.219C94.2031 105.646 94.4583 106.026 94.7812 106.359C95.1042 106.682 95.4792 106.938 95.9062 107.125C96.3438 107.312 96.8125 107.406 97.3125 107.406H98.0781C98.5781 107.406 99.0417 107.312 99.4688 107.125C99.9062 106.938 100.286 106.682 100.609 106.359C100.943 106.026 101.203 105.646 101.391 105.219C101.578 104.781 101.672 104.312 101.672 103.812V101ZM7.42188 129.422C7.09896 129.422 6.79688 129.484 6.51562 129.609C6.24479 129.724 6.00521 129.885 5.79688 130.094C5.58854 130.302 5.42188 130.547 5.29688 130.828C5.18229 131.109 5.125 131.411 5.125 131.734V134H8.85938V135.828H5.125V150H3.20312V135.828H0.3125V134H3.20312V131.828C3.20312 131.245 3.3125 130.698 3.53125 130.188C3.75 129.667 4.05208 129.214 4.4375 128.828C4.82292 128.443 5.27083 128.141 5.78125 127.922C6.29167 127.703 6.83854 127.594 7.42188 127.594H9.1875V129.422H7.42188ZM11.5938 130.156V127.594H13.8281V130.156H11.5938ZM11.75 150V134H13.6719V150H11.75ZM18.8125 150V127.594H20.7344V150H18.8125ZM25.875 150V127.594H27.7969V150H25.875ZM31.9531 136.406V134H34.3594V136.406H31.9531ZM31.9531 150V147.594H34.3594V150H31.9531ZM56.5781 145.609C56.5781 146.255 56.4531 146.865 56.2031 147.438C55.9635 148.01 55.6302 148.51 55.2031 148.938C54.776 149.365 54.276 149.703 53.7031 149.953C53.1302 150.193 52.5208 150.312 51.875 150.312H50.5938C49.9479 150.312 49.3385 150.193 48.7656 149.953C48.1927 149.703 47.6927 149.365 47.2656 148.938C46.8385 148.51 46.5 148.01 46.25 147.438C46.0104 146.865 45.8906 146.255 45.8906 145.609V138.391C45.8906 137.745 46.0104 137.135 46.25 136.562C46.5 135.99 46.8385 135.49 47.2656 135.062C47.6927 134.635 48.1927 134.302 48.7656 134.062C49.3385 133.812 49.9479 133.688 50.5938 133.688H51.875C52.5208 133.688 53.1302 133.812 53.7031 134.062C54.276 134.302 54.776 134.635 55.2031 135.062C55.6302 135.49 55.9635 135.99 56.2031 136.562C56.4531 137.135 56.5781 137.745 56.5781 138.391V145.609ZM54.6562 138.281C54.6562 137.896 54.5833 137.536 54.4375 137.203C54.2917 136.859 54.0938 136.562 53.8438 136.312C53.5938 136.062 53.2969 135.865 52.9531 135.719C52.6198 135.573 52.2604 135.5 51.875 135.5H50.5938C50.2083 135.5 49.8438 135.573 49.5 135.719C49.1667 135.865 48.875 136.062 48.625 136.312C48.375 136.562 48.1771 136.859 48.0312 137.203C47.8854 137.536 47.8125 137.896 47.8125 138.281V145.719C47.8125 146.104 47.8854 146.469 48.0312 146.812C48.1771 147.146 48.375 147.438 48.625 147.688C48.875 147.938 49.1667 148.135 49.5 148.281C49.8438 148.427 50.2083 148.5 50.5938 148.5H51.875C52.2604 148.5 52.6198 148.427 52.9531 148.281C53.2969 148.135 53.5938 147.938 53.8438 147.688C54.0938 147.438 54.2917 147.146 54.4375 146.812C54.5833 146.469 54.6562 146.104 54.6562 145.719V138.281ZM69.1875 150V138.281C69.1875 137.896 69.1146 137.536 68.9688 137.203C68.8229 136.859 68.625 136.562 68.375 136.312C68.125 136.062 67.8281 135.865 67.4844 135.719C67.151 135.573 66.7917 135.5 66.4062 135.5H65.125C64.7396 135.5 64.375 135.573 64.0312 135.719C63.6979 135.865 63.4062 136.062 63.1562 136.312C62.9062 136.562 62.7083 136.859 62.5625 137.203C62.4167 137.536 62.3438 137.896 62.3438 138.281V150H60.4219V134H61.0625L62.1094 135.625C62.5469 135.031 63.0938 134.562 63.75 134.219C64.4167 133.865 65.1406 133.688 65.9219 133.688H66.4062C67.0521 133.688 67.6615 133.812 68.2344 134.062C68.8073 134.302 69.3073 134.635 69.7344 135.062C70.1615 135.49 70.4948 135.99 70.7344 136.562C70.9844 137.135 71.1094 137.745 71.1094 138.391V150H69.1875Z" fill="black"/>
</svg>
